<svg viewBox="0 0 29 41" fill="none" xmlns="http://www.w3.org/2000/svg"><path d="M12.91 9.3a5.73 5.73 0 00-5.74 5.72c0 .95.25 1.88.75 2.76a.72.72 0 001.25-.7 4.22 4.22 0 01-.56-2.06 4.3 4.3 0 118.44 1.12c-.1.38.12.77.5.88a.7.7 0 00.88-.5 5.73 5.73 0 00-5.52-7.21zM0 4.48c0 .4.32.71.72.71H12.2a.72.72 0 100-1.43H.72c-.4 0-.72.32-.72.72zM28.72 4.48c0-.4-.32-.72-.72-.72H16.52a.72.72 0 100 1.43H28c.4 0 .72-.32.72-.71z" fill="currentColor"/><path d="M3.08 1.12L.21 3.97a.71.71 0 000 1.01l2.87 2.86c.28.28.74.28 1.02 0a.71.71 0 000-1L1.73 4.47 4.1 2.13a.72.72 0 10-1.02-1.01zM25.64 7.84l2.87-2.86a.71.71 0 000-1L25.64 1.1a.72.72 0 00-1.01 0 .71.71 0 000 1.01l2.36 2.36-2.36 2.35a.72.72 0 101.01 1.01zM25.83 22.16c-.6 0-1.14.18-1.6.48a2.88 2.88 0 00-4.3-1.42 2.88 2.88 0 00-4.15-1.53v-4.67a2.87 2.87 0 00-5.74 0v12.14L7.55 25.3a3.78 3.78 0 00-4.9.35c-.83.83-.83 2.2 0 3.03l10.23 10.18a6.43 6.43 0 004.56 1.88h3.37c4.35 0 7.89-3.53 7.89-7.86v-7.86a2.87 2.87 0 00-2.87-2.86zm1.43 10.72c0 3.54-2.9 6.43-6.45 6.43h-3.37a5 5 0 01-3.55-1.47L3.67 27.67a.71.71 0 010-1.01 2.32 2.32 0 013.02-.22l3.64 2.72a.72.72 0 001.15-.57V15.02a1.43 1.43 0 012.87 0v10.71a.72.72 0 001.43 0v-3.57a1.43 1.43 0 012.87 0v3.57a.72.72 0 001.44 0V23.6a1.43 1.43 0 012.87 0v2.14a.72.72 0 001.43 0v-.71a1.43 1.43 0 012.87 0v7.86z" fill="currentColor"/></svg>
