<svg width="169" height="378" viewBox="0 0 169 378" fill="none" xmlns="http://www.w3.org/2000/svg">
<path d="M61.4678 203.559H61.4411L61.4146 203.562C60.0051 203.713 58.8887 203.944 58.0242 204.365C57.1353 204.798 56.5276 205.425 56.1306 206.317C55.7448 207.184 55.5664 208.282 55.4783 209.649C55.3901 211.017 55.3901 212.708 55.3901 214.783V214.799V316.232V316.268C55.3901 318.923 55.3901 320.96 55.5677 322.499C55.7459 324.043 56.1124 325.195 56.9378 325.99C57.7592 326.781 58.9468 327.131 60.5431 327.302C62.1385 327.472 64.2519 327.472 67.013 327.472H67.0454H78.2007C86.9779 327.472 95.4828 324.755 101.794 318.451C108.108 312.144 112.166 302.307 112.166 288.189V242.842C112.166 228.724 108.108 218.888 101.794 212.581C95.4828 206.277 86.9779 203.559 78.2007 203.559H61.4678ZM78.2007 153.843H78.2167L78.2327 153.842C87.6123 153.24 96.1103 150.225 102.263 143.922C108.42 137.614 112.166 128.078 112.166 114.56V89.4997C112.166 75.3816 108.108 65.5451 101.794 59.2381C95.4828 52.9339 86.9779 50.2165 78.2007 50.2165H67.0454H67.0123C64.2515 50.2165 62.1384 50.2165 60.5431 50.3871C58.9468 50.5579 57.7592 50.9079 56.9378 51.6988C56.1124 52.4934 55.7459 53.6462 55.5677 55.1901C55.3901 56.729 55.3901 58.766 55.3901 61.421V61.4565V142.006V142.04C55.3901 144.846 55.3901 146.993 55.5674 148.615C55.7449 150.238 56.1089 151.444 56.9282 152.276C57.7491 153.111 58.9397 153.482 60.5402 153.663C62.1369 153.843 64.2513 153.843 67.0106 153.843H67.0454H78.2007ZM78.2007 0.5C101.343 0.5 123.671 7.48053 140.212 23.7015C156.748 39.9186 167.563 65.433 167.563 102.626C167.563 135.939 158.297 159.093 145.365 175.103C144.746 175.847 144.259 176.47 143.928 177.029C143.592 177.594 143.393 178.131 143.393 178.701C143.393 179.271 143.592 179.809 143.928 180.373C144.26 180.933 144.747 181.556 145.366 182.301C158.912 198.9 167.563 222.646 167.563 255.969V275.062C167.563 312.258 156.902 337.622 140.521 353.689C124.137 369.759 101.966 376.592 78.8204 376.592H11.2691C7.25972 376.592 4.64211 375.991 3.0089 374.487C1.38677 372.993 0.61377 370.492 0.61377 366.352V10.74C0.61377 6.88664 1.23633 4.37998 2.7925 2.81365C4.349 1.24698 6.96047 0.5 11.2691 0.5H78.2007Z" stroke="#E8B973"/>
</svg>
