<svg width="193" height="378" viewBox="0 0 193 378" fill="none" xmlns="http://www.w3.org/2000/svg">
<path d="M131.72 216.433L131.723 216.439C132.4 218.068 133.668 218.874 134.895 218.677C136.132 218.479 137.019 217.313 137.019 215.651V10.723C137.019 6.87584 137.641 4.37348 139.195 2.80986C140.75 1.24582 143.358 0.5 147.663 0.5H181.095C185.421 0.5 188.184 1.10414 189.811 2.60186C191.414 4.07737 192.047 6.55173 191.74 10.686L191.739 10.7045V10.723V366.369C191.739 370.216 191.117 372.719 189.563 374.282C188.008 375.846 185.399 376.592 181.095 376.592H155.711C153.267 376.592 151.195 376.297 149.442 375.383C147.704 374.477 146.227 372.936 145.026 370.34L61.4544 164.243C61.1228 163.292 60.65 162.603 60.0846 162.184C59.5086 161.757 58.855 161.625 58.2381 161.774C57.0152 162.068 56.1525 163.375 56.1525 165.015V365.773C56.1525 369.621 55.5306 372.123 53.9762 373.686C52.4214 375.251 49.8127 375.996 45.5084 375.996H12.0761C8.07078 375.996 5.4559 375.396 3.82448 373.895C2.2042 372.403 1.43201 369.906 1.43201 365.773V10.723C1.43201 6.87585 2.05393 4.37348 3.6083 2.80987C5.1631 1.24582 7.77183 0.5 12.0761 0.5H37.4599C40.5422 0.5 42.5873 0.801446 44.1639 1.7668C45.7305 2.7261 46.9168 4.39351 48.141 7.33756C48.1414 7.33858 48.1418 7.3396 48.1423 7.34062L131.72 216.433Z" stroke="#E8B973"/>
</svg>
