<svg width="169" height="378" viewBox="0 0 169 378" fill="none" xmlns="http://www.w3.org/2000/svg">
<path d="M85.071 224.251L85.068 224.236L85.064 224.22C84.416 221.724 83.2532 220.393 81.8532 219.719C80.5106 219.072 79.019 219.073 77.8069 219.073H77.763H67.2275H67.1944C64.4335 219.073 62.3205 219.073 60.7252 219.243C59.1289 219.414 57.9413 219.764 57.1198 220.555C56.2945 221.349 55.928 222.502 55.7498 224.046C55.5722 225.585 55.5722 227.622 55.5722 230.277V230.313V366.352C55.5722 370.205 54.9496 372.712 53.3935 374.278C51.837 375.845 49.2255 376.592 44.9169 376.592H11.4512C7.44184 376.592 4.82423 375.991 3.19103 374.487C1.56889 372.993 0.795898 370.492 0.795898 366.352V10.74C0.795898 6.88664 1.41846 4.37998 2.97462 2.81365C4.53112 1.24698 7.1426 0.5 11.4512 0.5H83.9604C107.42 0.5 128.343 7.03668 143.405 22.6475C158.469 38.2606 167.745 63.0274 167.745 99.643V116.946C167.745 166.363 153.529 190.649 133.866 204.847L133.604 205.036L133.669 205.353L166.515 365.856L166.517 365.864C167.427 369.954 166.797 372.617 165.526 374.249C164.252 375.884 162.251 376.592 160.188 376.592H124.863C122.996 376.592 121.435 376.592 120.098 376.464C118.764 376.336 117.697 376.085 116.811 375.608C115.075 374.672 113.879 372.774 112.958 368.637C112.957 368.635 112.957 368.632 112.956 368.63L85.071 224.251ZM112.968 134.25V133.75H112.468H112.349V86.5164C112.349 72.4475 109.709 62.6198 104.807 56.3021C99.8848 49.9584 92.7468 47.2332 83.9604 47.2332H67.2275H67.1944C64.4335 47.2332 62.3205 47.2332 60.7252 47.4038C59.1289 47.5746 57.9413 47.9246 57.1198 48.7155C56.2945 49.5101 55.928 50.6628 55.7498 52.2068C55.5722 53.7457 55.5722 55.7827 55.5722 58.4376V58.4731V161.696V161.734C55.5722 164.387 55.5722 166.425 55.7599 167.966C55.9485 169.514 56.3373 170.67 57.2071 171.463C58.0674 172.248 59.3097 172.595 60.9894 172.766C62.6705 172.936 64.8988 172.936 67.816 172.936H67.8472H84.5801C93.3661 172.936 100.503 170.211 105.425 163.944C110.327 157.701 112.968 148.022 112.968 134.25Z" stroke="#E8B973"/>
</svg>
