<svg width="180" height="381" viewBox="0 0 180 381" fill="none" xmlns="http://www.w3.org/2000/svg">
<path d="M133.82 0.5H167.275C171.594 0.5 174.216 1.10276 175.927 2.61738C177.637 4.13037 178.548 6.64931 179.166 10.803V278.124C179.166 315.408 168.355 340.985 151.823 357.242C135.288 373.502 112.968 380.5 89.833 380.5C66.6981 380.5 44.3778 373.502 27.8426 357.242C11.3111 340.985 0.5 315.408 0.5 278.124V10.7661C0.5 6.90309 1.12244 4.38965 2.67845 2.81915C4.23441 1.24871 6.84474 0.5 11.1517 0.5H44.6067C48.6146 0.5 51.231 1.10266 52.8636 2.61028C54.4856 4.10807 55.2584 6.61608 55.2584 10.7661V292.479C55.2584 306.63 59.3151 316.49 65.6269 322.812C71.9362 329.132 80.4387 331.856 89.2135 331.856C97.9882 331.856 106.491 329.132 112.8 322.812C119.112 316.49 123.169 306.63 123.169 292.479V10.7661C123.169 6.90309 123.791 4.38965 125.347 2.81915C126.903 1.24871 129.513 0.5 133.82 0.5Z" stroke="#E8B973"/>
</svg>
