<svg width="104" height="90" viewBox="0 0 104 90" fill="none" xmlns="http://www.w3.org/2000/svg">
<path d="M103.03 0.0188961L60.6767 12.9507C60.3965 13.0356 60.1163 12.8233 60.1163 12.5346V6.27677C60.1163 5.98807 59.8361 5.7758 59.5559 5.86071L0.305676 23.9126C0.127365 23.972 0 24.1334 0 24.3286V85.7781C0 86.0667 0.280203 86.279 0.560406 86.1941L27.4429 78.0003C27.7231 77.9154 28.0033 78.1277 28.0033 78.4164V89.565C28.0033 89.8537 28.2835 90.066 28.5637 89.9811L87.5508 72.0396C87.7291 71.9802 87.8564 71.8188 87.8564 71.6235V60.0588C87.8564 59.872 87.9838 59.7022 88.1621 59.6427L103.285 55.0236C103.463 54.9642 103.59 54.8029 103.59 54.6076V0.434955C103.59 0.146261 103.31 -0.066014 103.03 0.0188961Z" fill="black"/>
<path d="M27.4924 30.9385H29.9718C30.5916 30.9385 30.7954 31.1423 30.7954 31.7621V52.2C30.7954 57.9059 27.6113 60.0627 24.1809 60.0627C20.7505 60.0627 17.5664 57.9144 17.5664 52.2V31.7706C17.5664 31.1508 17.7702 30.947 18.39 30.947H20.8694C21.4893 30.947 21.693 31.1508 21.693 31.7706V53.2783C21.693 55.4266 22.8903 56.2587 24.1724 56.2587C25.4546 56.2587 26.6518 55.4351 26.6518 53.2783V31.7706C26.6688 31.1423 26.8726 30.9385 27.4924 30.9385Z" fill="white"/>
<path d="M46.5209 38.6483V39.9729C46.5209 43.7344 45.4425 45.6364 43.999 46.7147L46.436 58.9842C46.5973 59.6465 46.2661 59.8503 45.9435 59.8503H43.3367C42.8018 59.8503 42.5471 59.8503 42.4282 59.2305L40.3564 48.1582C40.2715 47.7846 40.0253 47.7846 39.8639 47.7846H39.0743C38.2506 47.7846 38.2506 47.7846 38.2506 48.6082V59.0182C38.2506 59.638 38.0469 59.8418 37.427 59.8418H34.9477C34.3278 59.8418 34.124 59.638 34.124 59.0182V31.7875C34.124 31.1677 34.3278 30.9639 34.9477 30.9639H40.3224C43.7528 30.9554 46.5209 32.9423 46.5209 38.6483ZM39.0743 34.598C38.2506 34.598 38.2506 34.598 38.2506 35.4217V43.3268C38.2506 44.1504 38.2506 44.1504 39.0743 44.1504H40.314C41.5961 44.1504 42.3858 43.3268 42.3858 41.2125V37.5699C42.3858 35.4217 41.5961 34.5896 40.314 34.5896H39.0743V34.598Z" fill="white"/>
<path d="M60.1496 44.3814C59.9798 44.5852 59.9798 44.6701 60.1496 44.8739C61.1855 46.156 61.8054 47.9731 61.8054 50.5374V52.0233C61.8054 57.7293 58.6467 59.8265 55.2079 59.8265H50.2406C49.6208 59.8265 49.417 59.6228 49.417 59.0029V31.7553C49.417 31.1354 49.6208 30.9316 50.2406 30.9316H55.1824C58.6128 30.9316 61.7969 33.0799 61.7969 38.7943C61.8054 41.3671 61.1431 43.1417 60.1496 44.3814ZM54.3588 42.6832H55.1824C56.5919 42.5983 57.6618 41.7747 57.6618 39.7029V37.8009C57.6618 35.6526 56.4645 34.8205 55.1824 34.8205H54.3588C53.5351 34.8205 53.5351 34.8205 53.5351 35.6441V41.8086C53.5266 42.6832 53.5266 42.6832 54.3588 42.6832ZM53.5266 55.182C53.5266 56.0056 53.5266 56.0056 54.3503 56.0056H55.1739C56.456 56.0056 57.6533 55.182 57.6533 53.0252V49.5524C57.6533 47.4042 56.456 46.5721 55.1739 46.5721H53.9342C53.5181 46.6145 53.5181 46.7759 53.5181 47.3957V55.182H53.5266Z" fill="white"/>
<path d="M76.0527 59.8434C75.6791 59.8434 75.3904 59.7584 75.2291 59.3509L69.0476 43.5576C68.9203 43.2689 68.7165 43.3963 68.7165 43.6V59.0112C68.7165 59.6311 68.5127 59.8349 67.8928 59.8349H65.4135C64.7936 59.8349 64.5898 59.6311 64.5898 59.0112V31.7636C64.5898 31.1437 64.7936 30.9399 65.4135 30.9399H67.273C67.7315 30.9399 67.9353 31.0249 68.0966 31.4749L74.2781 47.5059C74.4054 47.7522 74.6092 47.6672 74.6092 47.4635V31.7636C74.6092 31.1437 74.813 30.9399 75.4413 30.9399H77.9207C78.5406 30.9399 78.7444 31.1437 78.7444 31.7636V59.0112C78.7444 59.6311 78.5406 59.8349 77.9207 59.8349H76.0527V59.8434Z" fill="white"/>
<path d="M86.3118 31.2473C86.8467 31.553 87.2628 31.969 87.5684 32.5039C87.8741 33.0389 88.0269 33.6333 88.0269 34.2786C88.0269 34.9324 87.8741 35.5267 87.5599 36.0617C87.2458 36.6051 86.8212 37.0297 86.2863 37.3438C85.7514 37.658 85.157 37.8108 84.5032 37.8108C83.8494 37.8108 83.2635 37.658 82.7286 37.3438C82.1936 37.0297 81.7776 36.6051 81.4634 36.0702C81.1577 35.5352 81.0049 34.9409 81.0049 34.2955C81.0049 33.6502 81.1577 33.0644 81.4634 32.5209C81.7691 31.986 82.1936 31.5614 82.7286 31.2473C83.2635 30.9331 83.8664 30.7803 84.5202 30.7803C85.174 30.7803 85.7853 30.9416 86.3118 31.2473ZM85.9551 36.7834C86.3882 36.5287 86.7278 36.1806 86.9826 35.739C87.2288 35.2975 87.3562 34.8135 87.3562 34.2786C87.3562 33.7436 87.2373 33.2596 86.991 32.8266C86.7448 32.3936 86.4137 32.0539 85.9806 31.8077C85.5476 31.5614 85.0636 31.4341 84.5287 31.4341C83.9937 31.4341 83.5097 31.5614 83.0767 31.8162C82.6437 32.0709 82.304 32.4105 82.0578 32.8521C81.8115 33.2936 81.6927 33.7776 81.6927 34.304C81.6927 34.8305 81.8115 35.323 82.0578 35.756C82.304 36.1975 82.6436 36.5372 83.0682 36.7919C83.4927 37.0466 83.9767 37.174 84.5032 37.174C85.0381 37.174 85.5221 37.0466 85.9551 36.7834ZM86.1759 34.4654C86.057 34.6692 85.8702 34.822 85.6325 34.9409L86.4816 36.2315H85.4457L84.7155 35.1192H84.673H84.0277V36.2315H82.9918V32.3681H84.673C85.1994 32.3681 85.607 32.4955 85.9042 32.7417C86.2014 32.9879 86.3542 33.3276 86.3542 33.7436C86.3627 34.0238 86.3033 34.2701 86.1759 34.4654ZM84.6136 34.3465C84.8428 34.3465 85.0296 34.2955 85.157 34.1937C85.2844 34.0918 85.3523 33.9474 85.3523 33.7521C85.3523 33.5568 85.2844 33.4125 85.157 33.3021C85.0296 33.2002 84.8428 33.1408 84.6136 33.1408H84.0277V34.3465H84.6136Z" fill="white"/>
</svg>
