<svg width="39" height="39" viewBox="0 0 39 39" fill="none" xmlns="http://www.w3.org/2000/svg">
<path d="M0.500006 19.6008C0.500006 9.16546 9.00415 0.701551 19.5 0.701552C29.9959 0.701553 38.5 9.16546 38.5 19.6008C38.5 30.0361 29.9959 38.5 19.5 38.5C9.00415 38.5 0.500005 30.0361 0.500006 19.6008Z" stroke="currentColor"/>
<path d="M12.4098 18.8945C12.2145 19.0898 12.2145 19.4063 12.4098 19.6016L15.5918 22.7836C15.787 22.9788 16.1036 22.9788 16.2989 22.7836C16.4942 22.5883 16.4942 22.2717 16.2989 22.0765L13.4705 19.248L16.2989 16.4196C16.4942 16.2244 16.4942 15.9078 16.2989 15.7125C16.1036 15.5172 15.787 15.5172 15.5918 15.7125L12.4098 18.8945ZM26.2361 18.748L12.7634 18.748L12.7634 19.748L26.2361 19.748L26.2361 18.748Z" fill="currentColor"/>
</svg>
