<svg width="39" height="39" viewBox="0 0 39 39" fill="none" xmlns="http://www.w3.org/2000/svg">
<path d="M38.5 19.3992C38.5 29.8345 29.9959 38.2984 19.5 38.2984C9.00414 38.2984 0.5 29.8345 0.5 19.3992C0.5 8.96391 9.00414 0.5 19.5 0.5C29.9959 0.5 38.5 8.96391 38.5 19.3992Z" stroke="currentColor"/>
<path d="M26.59 20.1055C26.7852 19.9102 26.7852 19.5937 26.59 19.3984L23.408 16.2164C23.2127 16.0212 22.8961 16.0212 22.7009 16.2164C22.5056 16.4117 22.5056 16.7283 22.7009 16.9235L25.5293 19.752L22.7009 22.5804C22.5056 22.7756 22.5056 23.0922 22.7009 23.2875C22.8961 23.4827 23.2127 23.4827 23.408 23.2875L26.59 20.1055ZM12.7637 20.252H26.2364V19.252H12.7637V20.252Z" fill="currentColor"/>
</svg>
