<svg width="35" height="27" viewBox="0 0 35 27" fill="none" xmlns="http://www.w3.org/2000/svg">
<path d="M34.4013 11.9917L10.811 0.226447C10.393 -0.0124423 9.79573 0.166724 9.61656 0.644502L4.59989 10.7376C4.48045 10.9764 4.48045 11.2153 4.54017 11.4542C4.59989 11.6931 4.77906 11.8723 5.01795 11.9917L12.1249 15.5153L11.468 16.8292C11.2291 17.2473 11.4082 17.8445 11.886 18.0237L12.1249 18.1431L10.8707 20.3528H3.58462C2.92767 19.0389 1.55406 18.2028 0.120728 18.2028V26.1459C1.55406 26.1459 2.86795 25.3695 3.58462 24.0556H11.9457C12.6027 24.0556 13.1999 23.6973 13.5582 23.1001L15.4096 19.7556L15.768 19.9348C16.186 20.1737 16.7832 19.9945 16.9624 19.5167L17.6193 18.2028H17.6791L22.9346 20.8306C23.2332 20.9501 23.5916 20.9501 23.8305 20.7709L25.3235 19.7556L27.8916 21.0695C28.1305 21.1889 28.3693 21.1889 28.6082 21.1292C28.8471 21.0695 29.0263 20.8903 29.1457 20.6514L31.8332 15.3362L34.5805 13.5445C34.8791 13.3653 34.9985 13.0667 34.9985 12.7084C34.8791 12.4695 34.6999 12.1709 34.4013 11.9917Z"/>
</svg>
