<svg width="29" height="40" viewBox="0 0 29 40" fill="none" xmlns="http://www.w3.org/2000/svg">
<path d="M12.9142 8.43091C9.74866 8.43091 7.17432 11.0053 7.17432 14.1708C7.17432 15.1279 7.424 16.0621 7.91618 16.9475C8.04674 17.1828 8.29212 17.3163 8.54328 17.3163C8.66241 17.3163 8.78146 17.2875 8.89339 17.2259C9.2392 17.0336 9.36404 16.5959 9.17032 16.2501C8.79868 15.5814 8.60927 14.8811 8.60927 14.1708C8.60927 11.7974 10.5408 9.86586 12.9142 9.86586C15.2876 9.86586 17.2191 11.7974 17.2191 14.1708C17.2191 14.5123 17.1646 14.8696 17.0483 15.2973C16.945 15.679 17.1703 16.0736 17.552 16.1784C17.9409 16.2903 18.3312 16.0564 18.4331 15.6747C18.5838 15.1208 18.6541 14.6429 18.6541 14.1708C18.6541 11.0053 16.0797 8.43091 12.9142 8.43091Z" fill="white"/>
<path d="M-3.13633e-08 3.58742C-1.40513e-08 3.98348 0.321456 4.30493 0.717509 4.30493L12.1973 4.30493C12.5934 4.30493 12.9148 3.98347 12.9148 3.58742C12.9148 3.19137 12.5934 2.86991 12.1973 2.86991L0.717509 2.86991C0.321456 2.86991 -4.86753e-08 3.19137 -3.13633e-08 3.58742Z" fill="white"/>
<path d="M28.7222 3.58689C28.7222 3.19084 28.4007 2.86938 28.0047 2.86938L16.5248 2.86939C16.1288 2.86939 15.8073 3.19084 15.8073 3.5869C15.8073 3.98295 16.1288 4.3044 16.5248 4.3044L28.0047 4.3044C28.4007 4.3044 28.7222 3.98295 28.7222 3.58689Z" fill="white"/>
<path d="M3.08081 0.209786L0.210841 3.07976C-0.0689786 3.35958 -0.0689785 3.81449 0.210841 4.09431L3.08081 6.96421C3.36063 7.24403 3.81554 7.24403 4.09536 6.96421C4.37518 6.68439 4.37518 6.22948 4.09536 5.94966L1.73196 3.58767L4.09536 1.22568C4.23453 1.08503 4.30489 0.901399 4.30489 0.7177C4.30489 0.534001 4.2346 0.350369 4.09536 0.209719C3.81547 -0.0700332 3.36063 -0.0700337 3.08081 0.209786Z" fill="white"/>
<path d="M25.6411 6.96453L28.5111 4.09456C28.7909 3.81474 28.7909 3.35983 28.5111 3.08001L25.6411 0.210109C25.3613 -0.0697104 24.9064 -0.0697103 24.6266 0.21011C24.3467 0.489929 24.3467 0.944838 24.6266 1.22466L26.99 3.58665L24.6266 5.94864C24.4874 6.08929 24.417 6.27292 24.417 6.45662C24.417 6.64032 24.4873 6.82395 24.6266 6.9646C24.9065 7.24435 25.3613 7.24435 25.6411 6.96453Z" fill="white"/>
<path d="M25.8289 21.3458C25.2391 21.3458 24.6895 21.5252 24.2332 21.8309C23.84 20.7145 22.7738 19.9109 21.524 19.9109C20.9342 19.9109 20.3846 20.0903 19.9283 20.3959C19.5351 19.2795 18.4689 18.4759 17.2191 18.4759C16.6967 18.4759 16.206 18.6166 15.7841 18.8619V14.171C15.7841 12.5882 14.4969 11.301 12.9141 11.301C11.3313 11.301 10.0442 12.5882 10.0442 14.171V26.3682L7.55021 24.4985C6.07221 23.3892 3.9671 23.5385 2.6584 24.8458C1.81894 25.6852 1.81894 27.0499 2.6584 27.8894L12.8769 38.1092C14.0966 39.329 15.7195 40.0005 17.4444 40.0005H20.8065C25.1574 40.0005 28.6989 36.4605 28.6989 32.1082V24.2158C28.6989 22.633 27.4117 21.3458 25.8289 21.3458ZM27.2639 32.1081C27.2639 35.6683 24.3666 38.5655 20.8065 38.5655H17.4443C16.1012 38.5655 14.8398 38.0432 13.8914 37.0946L3.67288 26.8748C3.39306 26.595 3.39306 26.1401 3.67288 25.8603C4.1177 25.4169 4.71178 25.1887 5.30875 25.1887C5.7938 25.1887 6.28167 25.3394 6.69063 25.6464L10.3312 28.3772C10.5478 28.5408 10.8406 28.5666 11.0831 28.4446C11.3256 28.3227 11.4792 28.0744 11.4792 27.8032V14.171C11.4792 13.3803 12.122 12.736 12.9141 12.736C13.7062 12.736 14.3491 13.3804 14.3491 14.171V24.9333C14.3491 25.3294 14.6705 25.6508 15.0666 25.6508C15.4626 25.6508 15.7841 25.3294 15.7841 24.9333V21.3459C15.7841 20.5552 16.427 19.9109 17.2191 19.9109C18.0112 19.9109 18.654 20.5553 18.654 21.3459V24.9333C18.654 25.3294 18.9755 25.6508 19.3715 25.6508C19.7676 25.6508 20.089 25.3294 20.089 24.9333V22.7808C20.089 21.9901 20.7319 21.3459 21.524 21.3459C22.3161 21.3459 22.9589 21.9902 22.9589 22.7808V24.9333C22.9589 25.3294 23.2804 25.6508 23.6764 25.6508C24.0725 25.6508 24.3939 25.3294 24.3939 24.9333V24.2158C24.3939 23.4251 25.0368 22.7808 25.8289 22.7808C26.621 22.7808 27.2639 23.4252 27.2639 24.2158V32.1081Z" fill="white"/>
</svg>
