<svg width="53" height="52" viewBox="0 0 53 52" fill="none" xmlns="http://www.w3.org/2000/svg">
<g clip-path="url(#clip0_1938_502)">
<path d="M39.2552 0.708984H13.7446C6.72978 0.708984 0.989258 6.44502 0.989258 13.4544V38.9464C0.989258 45.9538 6.72978 51.6917 13.7446 51.6917H39.2552C46.27 51.6917 52.0106 45.9538 52.0106 38.9464V13.4544C52.0106 6.44502 46.27 0.708984 39.2552 0.708984ZM47.7586 38.9464C47.7586 43.6303 43.9454 47.4431 39.2552 47.4431H13.7446C9.05638 47.4431 5.24124 43.6303 5.24124 38.9464V13.4544C5.24124 8.76919 9.05638 4.95765 13.7446 4.95765H39.2552C43.9454 4.95765 47.7586 8.76919 47.7586 13.4544V38.9464Z" />
<path d="M40.3207 15.5797C42.0818 15.5797 43.5095 14.1531 43.5095 12.3934C43.5095 10.6336 42.0818 9.20703 40.3207 9.20703C38.5595 9.20703 37.1318 10.6336 37.1318 12.3934C37.1318 14.1531 38.5595 15.5797 40.3207 15.5797Z" />
<path d="M26.4995 13.4531C19.4534 13.4531 13.7441 19.1585 13.7441 26.1985C13.7441 33.2358 19.4534 38.9451 26.4995 38.9451C33.5435 38.9451 39.2548 33.2358 39.2548 26.1985C39.2548 19.1585 33.5435 13.4531 26.4995 13.4531ZM26.4995 34.6965C21.8035 34.6965 17.9961 30.892 17.9961 26.1985C17.9961 21.505 21.8035 17.7018 26.4995 17.7018C31.1954 17.7018 35.0028 21.505 35.0028 26.1985C35.0028 30.892 31.1954 34.6965 26.4995 34.6965Z"/>
</g>
<defs>
<clipPath id="clip0_1938_502">
<rect width="51.0226" height="50.9827" transform="translate(0.988281 0.708984)"/>
</clipPath>
</defs>
</svg>
