<svg width="95" height="83" viewBox="0 0 95 83" fill="none" xmlns="http://www.w3.org/2000/svg">
<path d="M90.5848 5.96475V47.2508L79.2783 50.7004L76.1557 51.6504V54.9209V62.848L30.0963 76.8566V71.5225V65.5656L24.3963 67.3021L4.41516 73.3836V25.4242L50.716 11.3143V12.1631V18.1279L56.416 16.3836L90.5848 5.96475ZM95 0L55.1311 12.1709V5.35738L0 22.1537V79.3406L25.6811 71.5148V82.8057L80.5709 66.1107V54.9209L95 50.5135V0Z" fill="white"/>
<path d="M24.5133 28.4387H26.787C27.3555 28.4387 27.5424 28.6256 27.5424 29.194V47.9371C27.5424 53.1699 24.6223 55.1477 21.4764 55.1477C18.3305 55.1477 15.4104 53.1777 15.4104 47.9371V29.2018C15.4104 28.6334 15.5973 28.4465 16.1657 28.4465H18.4395C19.0079 28.4465 19.1948 28.6334 19.1948 29.2018V48.926C19.1948 50.8961 20.2928 51.6592 21.4686 51.6592C22.6444 51.6592 23.7424 50.9039 23.7424 48.926V29.2018C23.7502 28.6334 23.937 28.4387 24.5133 28.4387Z" fill="white"/>
<path d="M41.956 35.5175V36.7322C41.956 40.1818 40.9671 41.9261 39.6433 42.915L41.8781 54.1671C42.0261 54.7744 41.7224 54.9613 41.4265 54.9613H39.0359C38.5454 54.9613 38.3118 54.9613 38.2027 54.3929L36.3027 44.2388C36.2249 43.8962 35.999 43.8962 35.8511 43.8962H35.1269C34.3716 43.8962 34.3716 43.8962 34.3716 44.6515V54.1982C34.3716 54.7666 34.1847 54.9535 33.6163 54.9535H31.3425C30.774 54.9535 30.5872 54.7666 30.5872 54.1982V29.2179C30.5872 28.6494 30.774 28.4625 31.3425 28.4625H36.2716C39.4175 28.4548 41.956 30.2769 41.956 35.5175ZM35.1347 31.7953C34.3794 31.7953 34.3794 31.7953 34.3794 32.5507V39.8003C34.3794 40.5556 34.3794 40.5556 35.1347 40.5556H36.2716C37.4474 40.5556 38.1716 39.8003 38.1716 37.8613V34.5207C38.1716 32.5507 37.4474 31.7876 36.2716 31.7876H35.1347V31.7953Z" fill="white"/>
<path d="M54.4539 40.7727C54.2982 40.9595 54.2982 41.0374 54.4539 41.2243C55.4039 42.4001 55.9724 44.0665 55.9724 46.4181V47.7809C55.9724 53.0136 53.0757 54.937 49.922 54.937H45.3667C44.7982 54.937 44.6113 54.7501 44.6113 54.1817V29.1936C44.6113 28.6251 44.7982 28.4382 45.3667 28.4382H49.8986C53.0445 28.4382 55.9646 30.4083 55.9646 35.6489C55.9724 38.0005 55.365 39.628 54.4539 40.7727ZM49.1433 39.2153H49.8986C51.1912 39.1374 52.1724 38.3821 52.1724 36.4821V34.7378C52.1724 32.7677 51.0744 32.0046 49.8986 32.0046H49.1433C48.388 32.0046 48.388 32.0046 48.388 32.76V38.4132C48.388 39.2153 48.388 39.2153 49.1433 39.2153ZM48.388 50.6698C48.388 51.4251 48.388 51.4251 49.1433 51.4251H49.8986C51.0744 51.4251 52.1724 50.6698 52.1724 48.6919V45.5071C52.1724 43.537 51.0744 42.7739 49.8986 42.7739H48.7617C48.3802 42.8128 48.3802 42.9608 48.3802 43.5292V50.6698H48.388Z" fill="white"/>
<path d="M69.0387 54.9457C68.696 54.9457 68.4313 54.8678 68.2833 54.494L62.6145 40.0104C62.4977 39.7457 62.3108 39.8625 62.3108 40.0494V54.1903C62.3108 54.7588 62.1239 54.9457 61.5555 54.9457H59.2817C58.7133 54.9457 58.5264 54.7588 58.5264 54.1903V29.2022C58.5264 28.6338 58.7133 28.4469 59.2817 28.4469H60.987C61.4075 28.4469 61.5944 28.5248 61.7424 28.9375L67.4112 43.6391C67.528 43.8649 67.7149 43.7871 67.7149 43.6002V29.2022C67.7149 28.6338 67.9018 28.4469 68.478 28.4469H70.7518C71.3202 28.4469 71.5071 28.6338 71.5071 29.2022V54.1903C71.5071 54.7588 71.3202 54.9457 70.7518 54.9457H69.0387Z" fill="white"/>
<path d="M78.453 28.7265C78.9436 29.0068 79.3251 29.3884 79.6054 29.879C79.8858 30.3695 80.0259 30.9146 80.0259 31.5064C80.0259 32.106 79.8858 32.6511 79.5977 33.1417C79.3095 33.64 78.9202 34.0294 78.4296 34.3175C77.9391 34.6056 77.394 34.7458 76.7944 34.7458C76.1948 34.7458 75.6575 34.6056 75.1669 34.3175C74.6763 34.0294 74.2948 33.64 74.0067 33.1494C73.7263 32.6589 73.5862 32.1138 73.5862 31.522C73.5862 30.9302 73.7263 30.3929 74.0067 29.8945C74.287 29.404 74.6763 29.0146 75.1669 28.7265C75.6575 28.4384 76.2104 28.2982 76.81 28.2982C77.4095 28.2982 77.9624 28.4462 78.453 28.7265ZM78.1181 33.8035C78.5153 33.5699 78.8268 33.2507 79.0604 32.8458C79.2862 32.4408 79.403 31.997 79.403 31.5064C79.403 31.0158 79.294 30.572 79.0682 30.1749C78.8423 29.7777 78.5386 29.4663 78.1415 29.2404C77.7444 29.0146 77.3005 28.8978 76.81 28.8978C76.3194 28.8978 75.8755 29.0146 75.4784 29.2482C75.0813 29.4818 74.7698 29.7933 74.544 30.1982C74.3181 30.6031 74.2091 31.047 74.2091 31.5298C74.2091 32.0126 74.3181 32.4642 74.544 32.8613C74.7698 33.2663 75.0813 33.5777 75.4706 33.8113C75.86 34.0449 76.3038 34.1617 76.7866 34.1617C77.285 34.154 77.721 34.0372 78.1181 33.8035ZM78.3206 31.6777C78.2116 31.8646 78.0403 32.0048 77.8222 32.1138L78.6009 33.2974H77.6509L76.9813 32.2773H76.9423H76.3505V33.2974H75.4005V29.7544H76.9423C77.4251 29.7544 77.7989 29.8712 78.0714 30.097C78.344 30.3228 78.4841 30.6343 78.4841 31.0158C78.4919 31.2728 78.4374 31.4908 78.3206 31.6777ZM76.8878 31.5609C77.0981 31.5609 77.2694 31.5142 77.3862 31.4208C77.503 31.3273 77.5653 31.1949 77.5653 31.0158C77.5653 30.8367 77.503 30.7044 77.3862 30.6031C77.2694 30.5097 77.0981 30.4552 76.8878 30.4552H76.3505V31.5609H76.8878Z" fill="white"/>
</svg>
