<svg width="94" height="82" viewBox="0 0 94 82" fill="none" xmlns="http://www.w3.org/2000/svg">
<path class="black-back" d="M93.4915 0.0171467L55.0593 11.7517C54.8051 11.8288 54.5508 11.6362 54.5508 11.3742V5.69567C54.5508 5.4337 54.2966 5.24108 54.0423 5.31813L0.277377 21.6988C0.115574 21.7527 0 21.8991 0 22.0763V77.8368C0 78.0988 0.254262 78.2914 0.508525 78.2143L24.9023 70.7791C25.1566 70.7021 25.4108 70.8947 25.4108 71.1566V81.2732C25.4108 81.5352 25.6651 81.7278 25.9193 81.6507L79.4454 65.3703C79.6072 65.3163 79.7228 65.1699 79.7228 64.9927V54.4986C79.7228 54.3291 79.8384 54.175 80.0002 54.1211L93.7226 49.9296C93.8844 49.8757 94 49.7293 94 49.5521V0.394688C94 0.13272 93.7457 -0.0599025 93.4915 0.0171467Z" fill="black"/>
<path d="M24.9487 28.0762H27.1986C27.761 28.0762 27.9459 28.2611 27.9459 28.8236V47.3693C27.9459 52.547 25.0566 54.5041 21.9438 54.5041C18.831 54.5041 15.9417 52.5547 15.9417 47.3693V28.8313C15.9417 28.2688 16.1266 28.0839 16.689 28.0839H18.9389C19.5013 28.0839 19.6863 28.2688 19.6863 28.8313V48.3478C19.6863 50.2972 20.7726 51.0523 21.9361 51.0523C23.0995 51.0523 24.1859 50.3049 24.1859 48.3478V28.8313C24.2013 28.2611 24.3863 28.0762 24.9487 28.0762Z" fill="white"/>
<path d="M42.2155 35.0706V36.2726C42.2155 39.6859 41.2369 41.4118 39.9271 42.3903L42.1384 53.5239C42.2848 54.1249 41.9843 54.3098 41.6915 54.3098H39.3261C38.8407 54.3098 38.6096 54.3098 38.5017 53.7474L36.6217 43.7001C36.5447 43.3611 36.3212 43.3611 36.1748 43.3611H35.4583C34.7109 43.3611 34.7109 43.3611 34.7109 44.1085V53.5547C34.7109 54.1172 34.526 54.3021 33.9635 54.3021H31.7137C31.1512 54.3021 30.9663 54.1172 30.9663 53.5547V28.8451C30.9663 28.2826 31.1512 28.0977 31.7137 28.0977H36.5909C39.7037 28.09 42.2155 29.8929 42.2155 35.0706ZM35.4583 31.3954C34.7109 31.3954 34.7109 31.3954 34.7109 32.1428V39.316C34.7109 40.0634 34.7109 40.0634 35.4583 40.0634H36.5832C37.7466 40.0634 38.4632 39.316 38.4632 37.3975V34.0921C38.4632 32.1428 37.7466 31.3877 36.5832 31.3877H35.4583V31.3954Z" fill="white"/>
<path d="M54.5818 40.273C54.4277 40.4579 54.4277 40.5349 54.5818 40.7198C55.5218 41.8833 56.0843 43.5321 56.0843 45.859V47.2074C56.0843 52.3851 53.218 54.2882 50.0975 54.2882H45.5902C45.0277 54.2882 44.8428 54.1033 44.8428 53.5408V28.8157C44.8428 28.2533 45.0277 28.0684 45.5902 28.0684H50.0744C53.1872 28.0684 56.0765 30.0177 56.0765 35.2031C56.0842 37.5377 55.4833 39.148 54.5818 40.273ZM49.327 38.732H50.0744C51.3534 38.6549 52.3242 37.9075 52.3242 36.0275V34.3016C52.3242 32.3523 51.2379 31.5972 50.0744 31.5972H49.327C48.5797 31.5972 48.5797 31.5972 48.5797 32.3446V37.9384C48.572 38.732 48.572 38.732 49.327 38.732ZM48.572 50.0736C48.572 50.821 48.572 50.821 49.3193 50.821H50.0667C51.2302 50.821 52.3165 50.0736 52.3165 48.1166V44.9652C52.3165 43.0159 51.2302 42.2608 50.0667 42.2608H48.9418C48.5643 42.2993 48.5642 42.4457 48.5642 43.0082V50.0736H48.572Z" fill="white"/>
<path d="M69.0132 54.3037C68.6742 54.3037 68.4122 54.2267 68.2658 53.8569L62.6567 39.5257C62.5411 39.2637 62.3562 39.3793 62.3562 39.5642V53.5487C62.3562 54.1111 62.1712 54.296 61.6088 54.296H59.359C58.7965 54.296 58.6116 54.1111 58.6116 53.5487V28.8236C58.6116 28.2611 58.7965 28.0762 59.359 28.0762H61.0463C61.4624 28.0762 61.6473 28.1532 61.7937 28.5616L67.4029 43.1085C67.5185 43.3319 67.7034 43.2549 67.7034 43.07V28.8236C67.7034 28.2611 67.8883 28.0762 68.4585 28.0762H70.7083C71.2708 28.0762 71.4557 28.2611 71.4557 28.8236V53.5487C71.4557 54.1111 71.2708 54.296 70.7083 54.296H69.0132V54.3037Z" fill="white"/>
<path d="M78.3207 28.3535C78.8061 28.6308 79.1837 29.0084 79.461 29.4938C79.7384 29.9792 79.8771 30.5185 79.8771 31.1041C79.8771 31.6974 79.7384 32.2367 79.4533 32.7221C79.1682 33.2153 78.783 33.6005 78.2976 33.8856C77.8122 34.1707 77.2728 34.3094 76.6796 34.3094C76.0863 34.3094 75.5546 34.1707 75.0692 33.8856C74.5838 33.6005 74.2063 33.2153 73.9212 32.7298C73.6438 32.2444 73.5051 31.7051 73.5051 31.1195C73.5051 30.5339 73.6438 30.0023 73.9212 29.5092C74.1986 29.0238 74.5838 28.6385 75.0692 28.3535C75.5546 28.0684 76.1017 27.9297 76.695 27.9297C77.2882 27.9297 77.843 28.0761 78.3207 28.3535ZM77.9971 33.3771C78.39 33.1459 78.6982 32.83 78.9294 32.4294C79.1528 32.0287 79.2684 31.5895 79.2684 31.1041C79.2684 30.6187 79.1605 30.1795 78.9371 29.7866C78.7137 29.3936 78.4132 29.0854 78.0202 28.862C77.6273 28.6385 77.1881 28.523 76.7027 28.523C76.2173 28.523 75.7781 28.6385 75.3851 28.8697C74.9922 29.1008 74.684 29.409 74.4605 29.8097C74.2371 30.2103 74.1292 30.6495 74.1292 31.1272C74.1292 31.6049 74.2371 32.0518 74.4605 32.4448C74.684 32.8454 74.9922 33.1536 75.3774 33.3848C75.7627 33.6159 76.2019 33.7315 76.6796 33.7315C77.165 33.7315 77.6041 33.6159 77.9971 33.3771ZM78.1974 31.2736C78.0896 31.4585 77.9201 31.5972 77.7043 31.7051L78.4748 32.8762H77.5348L76.8722 31.8669H76.8337H76.2481V32.8762H75.3081V29.3705H76.8337C77.3114 29.3705 77.6812 29.4861 77.9509 29.7095C78.2205 29.933 78.3592 30.2412 78.3592 30.6187C78.3669 30.873 78.313 31.0964 78.1974 31.2736ZM76.7797 31.1658C76.9878 31.1658 77.1573 31.1195 77.2728 31.0271C77.3884 30.9346 77.4501 30.8036 77.4501 30.6264C77.4501 30.4492 77.3884 30.3182 77.2728 30.218C77.1573 30.1256 76.9878 30.0717 76.7797 30.0717H76.2481V31.1658H76.7797Z" fill="white"/>
</svg>
