<svg width="94" height="59" viewBox="0 0 94 59" fill="none" xmlns="http://www.w3.org/2000/svg">
<path class="black-back" d="M93.4915 0.855281L55.0593 9.08097C54.8051 9.13498 54.5508 8.99995 54.5508 8.81632V4.8358C54.5508 4.65217 54.2966 4.51714 54.0423 4.57115L0.277377 16.0536C0.115574 16.0914 0 16.194 0 16.3183V55.4051C0 55.5888 0.254262 55.7238 0.508525 55.6698L24.9023 50.4578C25.1566 50.4038 25.4108 50.5388 25.4108 50.7225V57.814C25.4108 57.9976 25.6651 58.1326 25.9193 58.0786L79.4454 46.6663C79.6072 46.6285 79.7228 46.5259 79.7228 46.4017V39.0456C79.7228 38.9268 79.8384 38.8187 80.0002 38.7809L93.7226 35.8428C93.8844 35.805 94 35.7024 94 35.5781V1.11993C94 0.936296 93.7457 0.801271 93.4915 0.855281Z" fill="black"/>
<path d="M24.9487 20.5244H27.1986C27.761 20.5244 27.9459 20.654 27.9459 21.0483V34.0485C27.9459 37.6779 25.0566 39.0498 21.9438 39.0498C18.831 39.0498 15.9417 37.6833 15.9417 34.0485V21.0537C15.9417 20.6594 16.1266 20.5298 16.689 20.5298H18.9389C19.5013 20.5298 19.6862 20.6594 19.6862 21.0537V34.7344C19.6862 36.1008 20.7726 36.6301 21.9361 36.6301C23.0995 36.6301 24.1859 36.1062 24.1859 34.7344V21.0537C24.2013 20.654 24.3863 20.5244 24.9487 20.5244Z" fill="white"/>
<path d="M42.2155 25.4275V26.27C42.2155 28.6626 41.2369 29.8725 39.9271 30.5584L42.1384 38.3628C42.2848 38.7841 41.9843 38.9137 41.6915 38.9137H39.3261C38.8407 38.9137 38.6096 38.9137 38.5017 38.5194L36.6217 31.4766C36.5447 31.2389 36.3212 31.2389 36.1748 31.2389H35.4583C34.7109 31.2389 34.7109 31.2389 34.7109 31.7628V38.3844C34.7109 38.7787 34.526 38.9083 33.9635 38.9083H31.7137C31.1512 38.9083 30.9663 38.7787 30.9663 38.3844V21.0635C30.9663 20.6692 31.1512 20.5396 31.7137 20.5396H36.5909C39.7037 20.5342 42.2155 21.798 42.2155 25.4275ZM35.4583 22.8512C34.7109 22.8512 34.7109 22.8512 34.7109 23.3751V28.4034C34.7109 28.9273 34.7109 28.9273 35.4583 28.9273H36.5832C37.7466 28.9273 38.4632 28.4034 38.4632 27.0585V24.7415C38.4632 23.3751 37.7466 22.8458 36.5832 22.8458H35.4583V22.8512Z" fill="white"/>
<path d="M54.5818 29.0737C54.4277 29.2033 54.4277 29.2573 54.5818 29.387C55.5218 30.2025 56.0843 31.3583 56.0843 32.9894V33.9346C56.0843 37.564 53.218 38.8981 50.0975 38.8981H45.5902C45.0277 38.8981 44.8428 38.7684 44.8428 38.3742V21.0424C44.8428 20.6482 45.0277 20.5186 45.5902 20.5186H50.0744C53.1872 20.5186 56.0765 21.885 56.0765 25.5199C56.0842 27.1564 55.4833 28.2852 54.5818 29.0737ZM49.327 27.9935H50.0744C51.3534 27.9395 52.3242 27.4156 52.3242 26.0978V24.8879C52.3242 23.5215 51.2379 22.9922 50.0744 22.9922H49.327C48.5797 22.9922 48.5797 22.9922 48.5797 23.5161V27.4372C48.572 27.9935 48.572 27.9935 49.327 27.9935ZM48.572 35.9437C48.572 36.4676 48.572 36.4676 49.3193 36.4676H50.0667C51.2302 36.4676 52.3165 35.9437 52.3165 34.5719V32.3629C52.3165 30.9964 51.2302 30.4672 50.0667 30.4672H48.9418C48.5643 30.4942 48.5642 30.5968 48.5642 30.991V35.9437H48.572Z" fill="white"/>
<path d="M69.0132 38.9094C68.6742 38.9094 68.4122 38.8554 68.2658 38.5961L62.6567 28.5503C62.5411 28.3666 62.3562 28.4477 62.3562 28.5773V38.3801C62.3562 38.7743 62.1712 38.904 61.6088 38.904H59.3589C58.7965 38.904 58.6116 38.7743 58.6116 38.3801V21.0483C58.6116 20.654 58.7965 20.5244 59.3589 20.5244H61.0463C61.4624 20.5244 61.6473 20.5784 61.7937 20.8647L67.4029 31.0617C67.5185 31.2184 67.7034 31.1644 67.7034 31.0347V21.0483C67.7034 20.654 67.8883 20.5244 68.4585 20.5244H70.7083C71.2707 20.5244 71.4557 20.654 71.4557 21.0483V38.3801C71.4557 38.7743 71.2707 38.904 70.7083 38.904H69.0132V38.9094Z" fill="white"/>
<path d="M78.3207 20.7184C78.8061 20.9129 79.1837 21.1775 79.461 21.5178C79.7384 21.858 79.8771 22.2361 79.8771 22.6466C79.8771 23.0625 79.7384 23.4405 79.4533 23.7808C79.1682 24.1265 78.783 24.3965 78.2976 24.5963C77.8122 24.7962 77.2728 24.8934 76.6796 24.8934C76.0863 24.8934 75.5546 24.7962 75.0692 24.5963C74.5838 24.3965 74.2063 24.1265 73.9212 23.7862C73.6438 23.4459 73.5051 23.0679 73.5051 22.6574C73.5051 22.2469 73.6438 21.8742 73.9212 21.5286C74.1986 21.1883 74.5838 20.9183 75.0692 20.7184C75.5546 20.5186 76.1017 20.4214 76.695 20.4214C77.2882 20.4214 77.843 20.524 78.3207 20.7184ZM77.9971 24.2399C78.39 24.0778 78.6982 23.8564 78.9294 23.5756C79.1528 23.2947 79.2684 22.9868 79.2684 22.6466C79.2684 22.3063 79.1605 21.9985 78.9371 21.723C78.7137 21.4476 78.4132 21.2315 78.0202 21.0749C77.6273 20.9183 77.1881 20.8373 76.7027 20.8373C76.2173 20.8373 75.7781 20.9183 75.3851 21.0803C74.9922 21.2423 74.684 21.4584 74.4605 21.7392C74.2371 22.0201 74.1292 22.3279 74.1292 22.6628C74.1292 22.9977 74.2371 23.3109 74.4605 23.5864C74.684 23.8672 74.9922 24.0832 75.3774 24.2453C75.7627 24.4073 76.2019 24.4883 76.6796 24.4883C77.165 24.4883 77.6041 24.4073 77.9971 24.2399ZM78.1974 22.7654C78.0896 22.895 77.9201 22.9922 77.7043 23.0679L78.4748 23.8888H77.5348L76.8722 23.1813H76.8337H76.2481V23.8888H75.3081V21.4314H76.8337C77.3114 21.4314 77.6812 21.5124 77.9509 21.669C78.2205 21.8256 78.3592 22.0417 78.3592 22.3063C78.3669 22.4846 78.313 22.6412 78.1974 22.7654ZM76.7797 22.6898C76.9878 22.6898 77.1573 22.6574 77.2728 22.5926C77.3884 22.5278 77.4501 22.4359 77.4501 22.3117C77.4501 22.1875 77.3884 22.0957 77.2728 22.0255C77.1573 21.9607 76.9878 21.9229 76.7797 21.9229H76.2481V22.6898H76.7797Z" fill="white"/>
</svg>
