<svg width="394" height="420" viewBox="0 0 394 420" fill="none" xmlns="http://www.w3.org/2000/svg">
<g clip-path="url(#clip0)">
<path d="M393.779 3.07309C393.786 2.97014 393.786 2.86681 393.779 2.76386C393.785 2.67497 393.785 2.5857 393.779 2.49681C393.779 2.42653 393.779 2.35625 393.779 2.28597C393.759 2.1945 393.731 2.10509 393.695 2.01892C393.663 1.93666 393.625 1.8568 393.582 1.77997C393.582 1.77997 393.582 1.70969 393.582 1.68158L393.456 1.54102L393.385 1.40047L393.203 1.24585L392.95 1.04908C392.906 1.00738 392.859 0.969739 392.809 0.936631L392.598 0.866351C392.503 0.820484 392.404 0.782864 392.303 0.753906H392.078H391.572H391.319C391.222 0.76895 391.127 0.797331 391.038 0.838242H390.897L157.405 109.067C157 109.26 156.662 109.572 156.436 109.961C156.211 110.349 156.108 110.797 156.14 111.245C156.172 111.695 156.342 112.123 156.626 112.473C156.91 112.822 157.295 113.076 157.728 113.199L225.505 132.68L237.761 188.903C237.786 188.974 237.814 189.045 237.846 189.113C237.846 189.24 237.944 189.367 238 189.493C238.056 189.62 238.127 189.676 238.183 189.76L238.45 190.055L238.717 190.252C238.78 190.302 238.846 190.349 238.914 190.393L239.083 190.463H239.265C239.477 190.54 239.7 190.583 239.926 190.589C240.147 190.588 240.367 190.545 240.572 190.463H240.671C240.868 190.388 241.053 190.284 241.219 190.154L241.331 190.055L241.472 189.943L273.955 155.97L352.455 190.449C352.738 190.575 353.045 190.642 353.355 190.646C353.708 190.643 354.055 190.557 354.367 190.393C354.658 190.239 354.912 190.023 355.111 189.761C355.31 189.499 355.449 189.196 355.519 188.875L393.751 3.34014C393.774 3.25311 393.783 3.16303 393.779 3.07309ZM375.015 12.912L226.91 128.463L164.419 110.613L375.015 12.912ZM362.097 28.6684L247.432 141.001L247.333 141.113L247.15 141.352L247.066 141.493C247.061 141.526 247.061 141.559 247.066 141.591C247.025 141.662 246.992 141.738 246.968 141.816C246.961 141.886 246.961 141.957 246.968 142.027C246.962 142.069 246.962 142.112 246.968 142.154L240.01 177.574L230.003 131.781L362.097 28.6684ZM243.608 181.481L250.636 145.724L259.379 149.561L269.766 154.129L243.608 181.481ZM351.738 185.347L252.857 141.872L383.307 14.0786L387.96 9.52463L351.738 185.347Z" fill="#E8B973"/>
<path d="M241.078 190.308L237.832 187.497C239.097 186.091 240.347 184.686 241.627 183.182L244.887 185.993C243.608 187.497 242.343 188.903 241.078 190.308Z" fill="#E8B973"/>
<path d="M30.7498 404.193L27.77 401.044C30.5811 398.416 33.3079 395.731 35.9785 393.089L39.0286 396.181C36.3299 398.837 33.5469 401.536 30.7498 404.193ZM51.1305 383.854L48.0101 380.86C50.6526 378.049 53.281 375.238 55.7969 372.497L59.0016 375.421C56.4435 378.204 53.801 381.043 51.1305 383.854ZM70.4007 362.433L67.0977 359.622C69.5715 356.713 72.0171 353.747 74.3644 350.823L77.7518 353.536C75.3764 356.488 72.9026 359.482 70.4007 362.433ZM88.3076 339.832L84.8078 337.26C87.0707 334.196 89.3056 331.061 91.442 327.983L95.0122 330.443C92.8476 333.563 90.5987 336.726 88.3076 339.832ZM104.5 315.937L100.817 313.646L101.028 313.323C103.024 310.076 104.907 306.9 106.65 303.864L110.431 305.986C108.688 309.078 106.777 312.311 104.809 315.586L104.5 315.937ZM63.1621 308.741C59.2405 308.594 55.3334 308.181 51.4678 307.504L52.2268 303.287C55.8974 303.93 59.6071 304.324 63.3308 304.468L63.1621 308.741ZM80.7035 307.912L80.1413 303.611C83.7958 303.119 87.5205 302.444 91.2031 301.572L92.201 305.789C88.3779 306.717 84.5548 307.434 80.7035 307.94V307.912ZM34.5308 302.289C30.9132 300.639 27.4709 298.628 24.2561 296.288L26.8283 292.914C29.7955 295.107 32.9793 296.991 36.3299 298.536L34.5308 302.289ZM108.913 300.49L107.311 296.456C110.793 295.072 114.203 293.515 117.529 291.79L119.539 295.627C116.082 297.445 112.536 299.087 108.913 300.546V300.49ZM118.274 290.44L114.325 288.698C115.927 285.127 117.347 281.67 118.541 278.226L122.631 279.632C121.395 283.16 119.933 286.8 118.288 290.497L118.274 290.44ZM134.34 286.224L131.796 282.71C134.916 280.461 137.999 278.212 141.044 275.963L143.588 279.561C140.566 281.824 137.46 284.087 134.34 286.336V286.224ZM11.8168 283.413C9.55181 280.148 7.63004 276.657 6.08215 272.997L10.0739 271.311C11.5133 274.689 13.2885 277.915 15.3729 280.939L11.8168 283.413ZM157.363 269.132L154.706 265.702C157.771 263.327 160.778 260.938 163.674 258.675L166.387 262.048C163.491 264.325 160.455 266.729 157.363 269.132ZM127.045 262.666L122.828 261.978C123.423 258.391 123.729 254.762 123.742 251.127V250.902H128.085V251.099C128.045 254.976 127.697 258.844 127.045 262.666ZM1.30323 256.131C0.703668 252.263 0.342225 248.362 0.220947 244.45L4.55009 244.31C4.66476 248.043 5.01214 251.766 5.5902 255.456L1.30323 256.131ZM179.683 250.972L176.872 247.669C179.782 245.181 182.691 242.651 185.488 240.163L188.37 243.396C185.545 245.912 182.621 248.456 179.683 250.972ZM121.184 234.611C120.068 231.11 118.584 227.736 116.756 224.548L120.523 222.411C122.504 225.861 124.11 229.513 125.316 233.304L121.184 234.611ZM201.118 231.73L198.138 228.582C200.949 225.981 203.662 223.311 206.375 220.654L209.411 223.746C206.684 226.417 203.887 229.102 201.118 231.73ZM6.60221 228.047L2.45579 226.754C3.64732 222.94 5.28439 219.279 7.3331 215.847L11.0578 218.068C9.17802 221.204 7.68207 224.554 6.60221 228.047ZM221.555 211.476L218.435 208.468C221.035 205.769 223.706 202.958 226.292 200.147L229.468 203.099C226.826 205.952 224.169 208.763 221.555 211.476ZM106.636 211.476C103.988 208.844 101.171 206.389 98.2028 204.125L100.845 200.681C103.959 203.066 106.912 205.653 109.686 208.426L106.636 211.476ZM21.698 205.601L18.8868 202.312C21.8989 199.734 25.1512 197.451 28.5993 195.495L30.7498 199.261C27.5413 201.066 24.5106 203.17 21.698 205.544V205.601ZM84.0769 195.382C80.7009 193.927 77.1818 192.83 73.5773 192.107L74.4347 187.89C78.3324 188.676 82.1383 189.863 85.7917 191.433L84.0769 195.382ZM46.1267 193.021L45.0444 188.804C48.869 187.81 52.7722 187.147 56.7106 186.822L57.0619 191.151C53.3671 191.442 49.7039 192.048 46.1126 192.965L46.1267 193.021Z" fill="#E8B973"/>
<path d="M13.616 419.935L10.7346 416.688L15.0216 412.865L17.9171 416.083C16.4974 417.377 15.0497 418.656 13.616 419.935Z" fill="#E8B973"/>
</g>
<defs>
<clipPath id="clip0">
<rect width="393.558" height="419.294" fill="white" transform="translate(0.221191 0.641357)"/>
</clipPath>
</defs>
</svg>
