<svg width="203" height="35" viewBox="0 0 203 35" fill="none" xmlns="http://www.w3.org/2000/svg">
<path d="M8.98507 27.8969L0 34.9998H35.5224L26.3284 27.8969H8.98507Z" fill="white"/>
<path d="M7.31343 8.85327L0 0.103271V34.8974L7.31343 25.8386V8.85327Z" fill="white"/>
<path d="M26.5373 7.10294L35.5224 0H0L9.19403 7.10294H26.5373Z" fill="white"/>
<path d="M28.209 26.1474L35.5224 34.8974V0.103271L28.209 9.16209V26.1474Z" fill="white"/>
<path d="M47.5374 29.1326C47.5374 28.0002 48.3732 27.0737 49.6269 27.0737C50.3583 27.0737 50.8806 27.3826 51.1941 27.7943L50.6717 28.412C50.3583 28.1031 50.1493 27.8973 49.6269 27.8973C49 27.8973 48.4777 28.412 48.4777 29.1326C48.4777 29.8531 49 30.3678 49.6269 30.3678C50.0448 30.3678 50.3583 30.162 50.6717 29.8531L51.1941 30.3678C50.7762 30.7796 50.3583 31.0884 49.5224 31.0884C48.3732 31.1914 47.5374 30.2649 47.5374 29.1326Z" fill="white"/>
<path d="M52.8658 28.0001H51.6121V27.2795H55.0598V28.0001H53.8061V31.1913H52.8658V28.0001Z" fill="white"/>
<path d="M55.8955 27.1767H56.8358V27.7943C57.1492 27.3826 57.5671 27.0737 58.194 27.0737C59.1343 27.0737 60.0746 27.7943 60.0746 29.1326C60.0746 30.4708 59.1343 31.1914 58.194 31.1914C57.5671 31.1914 57.1492 30.8826 56.8358 30.4708V32.2208H55.8955V27.1767ZM59.1343 29.1326C59.1343 28.412 58.6119 27.8973 57.9851 27.8973C57.3582 27.8973 56.8358 28.412 56.8358 29.1326C56.8358 29.8531 57.3582 30.3679 57.9851 30.3679C58.6119 30.3679 59.1343 29.9561 59.1343 29.1326Z" fill="white"/>
<path d="M60.8059 29.1326C60.8059 28.0002 61.7462 27.0737 62.8955 27.0737C64.1492 27.0737 64.985 28.0002 64.985 29.1326C64.985 30.2649 64.0447 31.1914 62.8955 31.1914C61.7462 31.1914 60.8059 30.2649 60.8059 29.1326ZM64.1492 29.1326C64.1492 28.412 63.6268 27.8973 62.8955 27.8973C62.1641 27.8973 61.7462 28.412 61.7462 29.1326C61.7462 29.8531 62.2686 30.3678 62.9999 30.3678C63.6268 30.3678 64.1492 29.8531 64.1492 29.1326Z" fill="white"/>
<path d="M66.0298 27.177H66.9701V29.8535C67.597 28.927 68.2238 28.1035 68.8507 27.2799H69.6865V31.1917H68.8507V28.6182L66.8656 31.0888H66.0298V27.177Z" fill="white"/>
<path d="M70.8359 27.177H71.7762L73.03 29.0299L74.2837 27.177H75.224V31.0888H74.2837V28.5152L73.03 30.2652L71.7762 28.5152V31.0888H70.8359V27.177Z" fill="white"/>
<path d="M78.7761 27.177H79.7164V28.8241H81.4925V27.2799H82.4328V31.1917H81.4925V29.6476H79.7164V31.1917H78.7761V27.177Z" fill="white"/>
<path d="M85.985 31.0888V30.5741C85.6715 30.8829 85.2536 31.0888 84.7312 31.0888C83.9999 31.0888 83.2686 30.677 83.2686 29.8535C83.2686 29.0299 83.9999 28.6182 84.8357 28.6182C85.3581 28.6182 85.6715 28.7211 85.985 28.8241V28.7211C85.985 28.2064 85.6715 27.8976 85.0447 27.8976C84.6268 27.8976 84.3133 28.0005 83.8954 28.1035L83.582 27.4858C83.9999 27.2799 84.4178 27.177 85.0447 27.177C86.1939 27.177 86.8208 27.7946 86.8208 28.8241V31.1917H85.985V31.0888ZM85.985 29.4417C85.776 29.3388 85.4626 29.2358 85.0447 29.2358C84.5223 29.2358 84.1044 29.4417 84.1044 29.8535C84.1044 30.2652 84.4178 30.4711 84.8357 30.4711C85.4626 30.4711 85.8805 30.1623 85.8805 29.6476V29.4417H85.985Z" fill="white"/>
<path d="M87.7612 29.1326C87.7612 28.0002 88.5971 27.0737 89.8508 27.0737C90.5821 27.0737 91.1045 27.3826 91.418 27.7943L90.8956 28.412C90.5821 28.1031 90.3732 27.8973 89.8508 27.8973C89.2239 27.8973 88.7015 28.412 88.7015 29.1326C88.7015 29.8531 89.2239 30.3679 89.8508 30.3679C90.2687 30.3679 90.5821 30.162 90.8956 29.8531L91.418 30.3679C91 30.7796 90.5821 31.0884 89.7463 31.0884C88.7015 31.1914 87.7612 30.2649 87.7612 29.1326Z" fill="white"/>
<path d="M93.1941 28.0001H91.9404V27.2795H95.3882V28.0001H94.1344V31.1913H93.1941V28.0001Z" fill="white"/>
<path d="M95.8059 29.1326C95.8059 28.0002 96.7462 27.0737 97.8955 27.0737C99.1492 27.0737 99.985 28.0002 99.985 29.1326C99.985 30.2649 99.0447 31.1914 97.8955 31.1914C96.7462 31.1914 95.8059 30.2649 95.8059 29.1326ZM99.1492 29.1326C99.1492 28.412 98.6268 27.8973 97.8955 27.8973C97.1641 27.8973 96.7462 28.412 96.7462 29.1326C96.7462 29.8531 97.2686 30.3678 97.9999 30.3678C98.6268 30.3678 99.1492 29.8531 99.1492 29.1326Z" fill="white"/>
<path d="M101.761 29.6472C101.239 29.4413 100.821 29.1325 100.821 28.5148C100.821 27.7942 101.343 27.2795 102.388 27.2795H104.373V31.1913H103.433V29.8531H102.597L101.657 31.1913H100.612L101.761 29.6472ZM103.537 29.1325V27.8972H102.597C102.075 27.8972 101.866 28.1031 101.866 28.5148C101.866 28.9266 102.179 29.1325 102.702 29.1325H103.537Z" fill="white"/>
<path d="M110.955 31.0888H105.627V27.177H106.567V30.3682H108.03V27.177H108.97V30.3682H110.433V27.177H111.373V30.3682H111.896L111.791 32.1182H111.06V31.0888H110.955Z" fill="white"/>
<path d="M112.522 29.1326C112.522 28.0002 113.358 27.0737 114.508 27.0737C115.761 27.0737 116.388 28.1031 116.388 29.1326C116.388 29.2355 116.388 29.3384 116.388 29.3384H113.463C113.567 29.9561 113.985 30.3678 114.612 30.3678C115.03 30.3678 115.343 30.162 115.657 29.8531L116.179 30.3678C115.761 30.7796 115.239 31.0884 114.508 31.0884C113.358 31.1914 112.522 30.3678 112.522 29.1326ZM115.448 28.9267C115.343 28.309 115.03 27.8973 114.403 27.8973C113.881 27.8973 113.463 28.309 113.358 28.9267H115.448Z" fill="white"/>
<path d="M117.119 29.1326C117.119 28.0002 117.955 27.0737 119.104 27.0737C120.358 27.0737 120.985 28.1031 120.985 29.1326C120.985 29.2355 120.985 29.3384 120.985 29.3384H118.06C118.164 29.9561 118.582 30.3678 119.209 30.3678C119.627 30.3678 119.94 30.162 120.254 29.8531L120.776 30.3678C120.358 30.7796 119.836 31.0884 119.104 31.0884C117.955 31.1914 117.119 30.3678 117.119 29.1326ZM120.045 28.9267C119.94 28.309 119.627 27.8973 119 27.8973C118.478 27.8973 118.06 28.309 117.955 28.9267H120.045Z" fill="white"/>
<path d="M47.3284 3.91187H60.9105V19.1472H57.5672V6.89716H50.7761V19.1472H47.3284V3.91187Z" fill="white"/>
<path d="M79.2986 3.91187H85.5672C89.224 3.91187 91.5225 6.07363 91.5225 9.26481C91.5225 12.7648 88.7016 14.6177 85.2538 14.6177H82.6419V19.1472H79.2986V3.91187ZM85.3583 11.5295C87.0299 11.5295 88.0747 10.5001 88.0747 9.16186C88.0747 7.61775 87.0299 6.89716 85.3583 6.89716H82.7463V11.5295H85.3583Z" fill="white"/>
<path d="M93.8208 3.91187H105.627V6.89716H97.2686V9.98539H103.746V12.9707H97.2686V16.1619H105.627V19.1472H93.8208V3.91187Z" fill="white"/>
<path d="M140 3.91187H151.806V6.89716H143.448V9.98539H149.925V12.9707H143.448V16.1619H151.806V19.1472H140V3.91187Z" fill="white"/>
<path d="M107.716 11.5296C107.716 7.20605 111.06 3.70605 115.761 3.70605C118.686 3.70605 120.254 4.83841 121.716 6.17664L119.731 8.44135C118.582 7.41194 117.537 6.79429 115.761 6.79429C113.149 6.79429 111.269 8.95605 111.269 11.5296C111.269 14.1031 113.149 16.2649 115.761 16.2649C117.537 16.2649 118.582 15.5443 119.836 14.5149L122.03 16.7796C120.463 18.4266 118.686 19.3531 115.657 19.3531C111.06 19.3531 107.716 15.8531 107.716 11.5296Z" fill="white"/>
<path d="M124.224 3.91187H131.433C133.209 3.91187 134.567 4.42657 135.507 5.2501C136.239 5.97069 136.552 6.79422 136.552 7.92657C136.552 9.67657 135.612 10.603 134.567 11.2207C136.343 11.9413 137.493 12.8677 137.493 15.0295C137.493 17.8089 135.194 19.2501 131.746 19.2501H124.433V3.91187H124.224ZM130.701 9.98539C132.164 9.98539 133.104 9.47069 133.104 8.33834C133.104 7.30892 132.269 6.79422 130.91 6.79422H127.567V9.98539H130.701ZM131.537 16.1619C133 16.1619 133.94 15.6472 133.94 14.5148C133.94 13.4854 133.209 12.8677 131.433 12.8677H127.463V16.2648H131.537V16.1619Z" fill="white"/>
<path d="M158.91 6.89716H154.209V3.91187H167.791L166.328 6.89716H162.254V19.1472H158.91V6.89716Z" fill="white"/>
<path d="M174.791 12.2502H171.657V19.1472H169.881V3.91194H171.657V10.7061H174.791C175.104 6.69135 178.03 3.70605 182.105 3.70605C186.493 3.70605 189.418 7.10311 189.418 11.5296C189.418 15.9561 186.493 19.4561 182.105 19.4561C177.925 19.3531 175.104 16.2649 174.791 12.2502ZM187.642 11.5296C187.642 8.02958 185.343 5.25017 182.105 5.25017C178.866 5.25017 176.567 7.92664 176.567 11.5296C176.567 15.0296 178.866 17.809 182.105 17.809C185.343 17.809 187.642 15.0296 187.642 11.5296Z" fill="white"/>
<path d="M191.508 3.91187H201.328V5.45598H193.179V19.1472H191.508V3.91187Z" fill="white"/>
<path d="M64.2537 3.91187H76.0596V6.89716H67.7014V9.98539H73.7611V12.9707H67.7014V16.1619H76.0596V19.1472H64.2537V3.91187Z" fill="white"/>
</svg>
