<svg width="135" height="118" viewBox="0 0 135 118" fill="none" xmlns="http://www.w3.org/2000/svg">
<path d="M128.084 9.33404V67.3642L112.192 72.2128L107.803 73.5481V78.145V89.287L43.0635 108.977V101.48V93.1068L35.0518 95.5475L6.96702 104.096V36.6855L72.0458 16.8532V18.0462V26.4301L80.0575 23.9784L128.084 9.33404ZM134.29 0.950195L78.2516 18.0572V8.48033L0.76123 32.0886V112.468L36.8577 101.469V117.339L114.009 93.8729V78.145L134.29 71.9502V0.950195Z" fill="white"/>
<path d="M35.216 40.9221H38.412C39.211 40.9221 39.4736 41.1848 39.4736 41.9838V68.3283C39.4736 75.6833 35.3693 78.4633 30.9475 78.4633C26.5257 78.4633 22.4214 75.6943 22.4214 68.3283V41.9947C22.4214 41.1957 22.6841 40.9331 23.483 40.9331H26.679C27.478 40.9331 27.7406 41.1957 27.7406 41.9947V69.7183C27.7406 72.4874 29.2839 73.56 30.9366 73.56C32.5893 73.56 34.1325 72.4983 34.1325 69.7183V41.9947C34.1434 41.1957 34.4061 40.9221 35.216 40.9221Z" fill="white"/>
<path d="M59.7328 50.8713V52.5787C59.7328 57.4273 58.3428 59.879 56.4822 61.269L59.6234 77.0844C59.8313 77.9381 59.4045 78.2008 58.9886 78.2008H55.6285C54.9389 78.2008 54.6106 78.2008 54.4573 77.4018L51.7868 63.1296C51.6773 62.648 51.3599 62.648 51.152 62.648H50.1341C49.0724 62.648 49.0724 62.648 49.0724 63.7097V77.1282C49.0724 77.9272 48.8097 78.1899 48.0108 78.1899H44.8148C44.0159 78.1899 43.7532 77.9272 43.7532 77.1282V42.0168C43.7532 41.2178 44.0159 40.9551 44.8148 40.9551H51.743C56.1648 40.9442 59.7328 43.5053 59.7328 50.8713ZM50.145 45.6396C49.0834 45.6396 49.0834 45.6396 49.0834 46.7012V56.891C49.0834 57.9526 49.0834 57.9526 50.145 57.9526H51.743C53.3957 57.9526 54.4136 56.891 54.4136 54.1657V49.4703C54.4136 46.7012 53.3957 45.6286 51.743 45.6286H50.145V45.6396Z" fill="white"/>
<path d="M77.2995 58.2592C77.0806 58.5219 77.0806 58.6313 77.2995 58.894C78.6348 60.5467 79.4338 62.8889 79.4338 66.1943V68.1096C79.4338 75.4647 75.3623 78.1681 70.9295 78.1681H64.5267C63.7278 78.1681 63.4651 77.9054 63.4651 77.1064V41.984C63.4651 41.185 63.7278 40.9224 64.5267 40.9224H70.8967C75.3185 40.9224 79.4228 43.6914 79.4228 51.0574C79.4338 54.3628 78.5801 56.6503 77.2995 58.2592ZM69.8351 56.0702H70.8967C72.7136 55.9607 74.0926 54.8991 74.0926 52.2285V49.7768C74.0926 47.0078 72.5494 45.9352 70.8967 45.9352H69.8351C68.7734 45.9352 68.7734 45.9352 68.7734 46.9968V54.9429C68.7734 56.0702 68.7734 56.0702 69.8351 56.0702ZM68.7734 72.1702C68.7734 73.2319 68.7734 73.2319 69.8351 73.2319H70.8967C72.5494 73.2319 74.0926 72.1702 74.0926 69.3902V64.9137C74.0926 62.1446 72.5494 61.072 70.8967 61.072H69.2988C68.7624 61.1268 68.7624 61.3347 68.7624 62.1337V72.1702H68.7734Z" fill="white"/>
<path d="M97.7991 78.1791C97.3176 78.1791 96.9454 78.0696 96.7375 77.5442L88.7695 57.1866C88.6054 56.8145 88.3427 56.9787 88.3427 57.2413V77.1174C88.3427 77.9164 88.08 78.1791 87.281 78.1791H84.0851C83.2861 78.1791 83.0234 77.9164 83.0234 77.1174V41.995C83.0234 41.196 83.2861 40.9333 84.0851 40.9333H86.482C87.0731 40.9333 87.3358 41.0428 87.5437 41.6229L95.5116 62.287C95.6758 62.6044 95.9385 62.4949 95.9385 62.2322V41.995C95.9385 41.196 96.2012 40.9333 97.0111 40.9333H100.207C101.006 40.9333 101.269 41.196 101.269 41.995V77.1174C101.269 77.9164 101.006 78.1791 100.207 78.1791H97.7991Z" fill="white"/>
<path d="M111.032 41.3268C111.722 41.7208 112.258 42.2572 112.652 42.9467C113.046 43.6362 113.243 44.4024 113.243 45.2342C113.243 46.0769 113.046 46.8431 112.641 47.5326C112.236 48.2331 111.689 48.7803 110.999 49.1853C110.31 49.5903 109.543 49.7873 108.701 49.7873C107.858 49.7873 107.103 49.5903 106.413 49.1853C105.724 48.7803 105.187 48.2331 104.782 47.5436C104.388 46.854 104.191 46.0879 104.191 45.2561C104.191 44.4243 104.388 43.669 104.782 42.9686C105.176 42.279 105.724 41.7318 106.413 41.3268C107.103 40.9219 107.88 40.7249 108.723 40.7249C109.565 40.7249 110.342 40.9328 111.032 41.3268ZM110.561 48.4629C111.12 48.1346 111.557 47.6858 111.886 47.1167C112.203 46.5476 112.367 45.9237 112.367 45.2342C112.367 44.5446 112.214 43.9208 111.897 43.3626C111.579 42.8044 111.152 42.3666 110.594 42.0492C110.036 41.7318 109.412 41.5676 108.723 41.5676C108.033 41.5676 107.409 41.7318 106.851 42.0601C106.293 42.3885 105.855 42.8263 105.538 43.3954C105.22 43.9646 105.067 44.5884 105.067 45.267C105.067 45.9456 105.22 46.5804 105.538 47.1386C105.855 47.7077 106.293 48.1455 106.84 48.4739C107.387 48.8022 108.011 48.9664 108.69 48.9664C109.39 48.9555 110.003 48.7913 110.561 48.4629ZM110.846 45.475C110.693 45.7376 110.452 45.9347 110.145 46.0879L111.24 47.7515H109.905L108.963 46.3177H108.909H108.077V47.7515H106.742V42.7716H108.909C109.587 42.7716 110.113 42.9357 110.496 43.2531C110.879 43.5705 111.076 44.0083 111.076 44.5446C111.087 44.9058 111.01 45.2123 110.846 45.475ZM108.832 45.3108C109.128 45.3108 109.368 45.2451 109.533 45.1138C109.697 44.9824 109.784 44.7964 109.784 44.5446C109.784 44.2929 109.697 44.1068 109.533 43.9646C109.368 43.8332 109.128 43.7566 108.832 43.7566H108.077V45.3108H108.832Z" fill="white"/>
</svg>
