<svg width="164" height="27" viewBox="0 0 164 27" fill="none" xmlns="http://www.w3.org/2000/svg">
<path d="M73.4019 7.78153L76.7456 5.24036H65.2815V20.3286H76.7456V17.7874H68.6252V13.9756H75.631V11.4345H68.6252V7.78153H73.4019Z" fill="white"/>
<path d="M56.6835 11.1168H52.7029V7.78153H59.0719L62.4156 5.24036H49.3593V20.3286H56.2059C60.0272 20.3286 62.2563 18.5815 62.2563 15.5639C62.2563 12.7051 60.3457 11.1168 56.6835 11.1168ZM56.0466 17.7874H52.7029V13.658H56.0466C58.1165 13.658 59.0719 14.2933 59.0719 15.7227C59.2311 17.1521 58.1165 17.7874 56.0466 17.7874Z" fill="white"/>
<path d="M85.9806 5.24036H79.7709V20.3286H83.1146V16.0404H85.9806C89.9612 16.0404 92.3495 13.9756 92.3495 10.6404C92.3495 7.30506 89.9612 5.24036 85.9806 5.24036ZM85.9806 13.4992H83.1146V7.78153H85.9806C88.0505 7.78153 89.1651 8.8933 89.1651 10.6404C89.1651 12.3874 88.0505 13.4992 85.9806 13.4992Z" fill="white"/>
<path d="M43.7864 16.9936C42.9903 17.47 41.8757 17.7877 40.9204 17.7877C37.8951 17.7877 35.8252 15.723 35.8252 12.8641C35.8252 10.0053 37.8951 7.94061 40.9204 7.94061C42.0349 7.94061 42.9903 8.25826 43.9456 8.89355L46.3339 7.14649L46.1747 6.82885C44.7417 5.55826 42.9903 5.08179 40.9204 5.08179C38.6912 5.08179 36.6213 5.8759 35.1883 7.30532C33.7553 8.73473 32.8 10.7994 32.9592 12.8641C32.9592 14.9288 33.7553 16.9936 35.1883 18.423C36.7806 19.8524 38.8505 20.6465 40.9204 20.6465C43.3087 20.6465 45.3786 19.8524 46.6524 18.423L44.5825 16.8347L43.7864 16.9936Z" fill="white"/>
<path d="M131.837 5.24061V20.3288H135.181V14.1347H142.186V20.3288H145.53V5.24061H142.186V11.4347H135.181V5.24061H131.837ZM126.105 20.3288H129.608L123.239 5.24061H119.895L113.367 20.3288H116.711L117.984 17.3112H124.99L126.105 20.3288ZM118.94 14.77L121.487 8.73473L123.876 14.77H118.94ZM152.695 14.1347H154.765L159.701 20.17H163.841L157.153 12.3877L163.045 5.08179H159.223L154.447 11.5936H152.695V5.24061H149.351V20.3288H152.695V14.1347ZM102.54 11.1171V7.78179H111.138V5.24061H99.3553V20.3288H106.202C110.023 20.3288 112.252 18.5818 112.252 15.5641C112.093 12.7053 110.183 11.1171 106.52 11.1171H102.54ZM102.54 17.7877V13.6583H105.884C107.953 13.6583 108.909 14.2936 108.909 15.723C108.909 17.1524 107.953 17.7877 105.884 17.7877H102.54Z" fill="white"/>
<path d="M22.6097 5.08179C23.2466 5.8759 23.7243 6.67002 24.0427 7.62296L12.7379 16.0406L7.96118 13.023V9.37002L12.7379 12.3877L22.6097 5.08179Z" fill="white"/>
<path d="M3.02526 12.7931C3.02526 12.6343 3.02526 12.4755 3.02526 12.3167L0.159239 12.1578C0.159239 12.3167 0.159239 12.6343 0.159239 12.7931C1.60784e-05 16.1284 1.43303 19.3049 3.82138 21.5284L5.89128 19.4637C4.13982 17.8755 3.02526 15.4931 3.02526 12.7931Z" fill="white"/>
<path d="M12.5786 3.1048C12.7378 3.1048 12.897 3.1048 13.0562 3.1048L13.2155 0.245972C13.0562 0.245972 12.897 0.245972 12.7378 0.245972C9.23488 0.245972 6.05042 1.67538 3.82129 3.89891L5.89119 5.96362C7.48343 4.21656 10.031 3.1048 12.5786 3.1048Z" fill="white"/>
<path d="M12.5787 22.3221C12.4194 22.3221 12.2602 22.3221 12.101 22.3221L11.9418 25.1809C12.101 25.1809 12.4194 25.1809 12.5787 25.1809C16.0816 25.1809 19.266 23.7515 21.4952 21.528L19.4253 19.4633C17.6738 21.3691 15.2855 22.3221 12.5787 22.3221Z" fill="white"/>
<path d="M18.1514 4.76445L20.5398 3.01739C18.3107 1.27033 15.6039 0.158569 12.5786 0.158569V3.17622C14.6485 3.17622 16.5592 3.81151 18.1514 4.76445Z" fill="white"/>
<path d="M25.1573 12.7056C25.1573 11.9115 25.1573 11.2762 24.9981 10.4821L22.2913 12.5468C22.2913 12.5468 22.2913 12.7056 22.2913 12.8644C22.2913 15.7232 21.0175 18.2644 19.1068 20.0115L21.0175 22.235C23.5651 19.6938 25.1573 16.3585 25.1573 12.7056Z" fill="white"/>
<path d="M12.5786 22.3938C9.7126 22.3938 7.16503 21.1232 5.41357 19.2173L3.18445 21.1232C5.41357 23.6643 8.75726 25.2526 12.5786 25.2526V22.3938Z" fill="white"/>
<path d="M6.20971 5.55836L4.13981 3.49365C1.59223 5.71718 0 9.05248 0 12.7054H2.86602C3.02524 10.0054 4.13981 7.30542 6.20971 5.55836Z" fill="white"/>
</svg>
