<svg width="23" height="89" viewBox="0 0 23 89" fill="none" xmlns="http://www.w3.org/2000/svg">
<path d="M10.6464 88.3536C10.8417 88.5488 11.1583 88.5488 11.3536 88.3536L14.5355 85.1716C14.7308 84.9763 14.7308 84.6597 14.5355 84.4645C14.3403 84.2692 14.0237 84.2692 13.8284 84.4645L11 87.2929L8.17157 84.4645C7.97631 84.2692 7.65973 84.2692 7.46447 84.4645C7.26921 84.6597 7.26921 84.9763 7.46447 85.1716L10.6464 88.3536ZM10.5 55L10.5 88L11.5 88L11.5 55L10.5 55Z" fill="#E8B973"/>
<rect x="0.5" y="0.5" width="22" height="36" rx="11" stroke="#E8B973"/>
<rect x="9.5" y="17.5" width="4" height="9" rx="2" stroke="#E8B973"/>
<path d="M0 22.5H9" stroke="#E8B973"/>
<line x1="13.5909" y1="22.5" x2="21.9546" y2="22.5" stroke="#E8B973"/>
<line x1="11.5" y1="26" x2="11.5" y2="36" stroke="#E8B973"/>
</svg>
