<svg width="345" height="58" viewBox="0 0 345 58" fill="none" xmlns="http://www.w3.org/2000/svg">
<g opacity="0.2" clip-path="url(#clip0_1739:796)">
<path d="M273.833 10.7557C273.833 10.7557 280.999 11.4227 282.166 10.7557C283.333 10.0887 287.167 8.42271 285.25 12.4227C283.333 16.4227 280.332 16.4227 279.666 16.4227C279 16.4227 275.416 15.7557 274.083 14.0057C272.75 12.2557 273.5 10.9217 273.833 10.7557ZM105.781 0.000711808C103.516 0.0318837 98.5944 0.250462 95.3439 1.50071C91.0099 3.16771 72.1661 12.0115 71.5001 23.8445C70.8341 35.6775 71.9894 44.5115 72.6564 46.8445C73.3234 49.1775 79.8331 55.824 91.0001 56.157C102.167 56.49 112.667 56.157 122 48.157C122 48.157 123.469 55.8757 126.219 57.1257C128.969 58.3757 137.219 59.1257 138.344 53.5007C139.469 47.8757 138.844 43.5007 138.844 43.5007C138.844 43.5007 139.844 43.6257 139.969 41.5007C139.969 41.5007 144.844 39.7507 145.719 35.0007L145.969 33.8757C145.969 33.8757 149.594 33.6257 147.594 36.8757C145.594 40.1257 147.344 52.8757 157.344 54.2507C167.344 55.6257 179.344 51.0007 184.344 47.1257C184.344 47.1257 196.719 64.8757 204.094 44.7507C204.094 44.7507 204.969 40.8757 204.969 35.1257C204.969 35.1257 205.594 33.2507 207.344 35.2507C207.724 35.6856 207.913 35.8639 208.063 36.0007C208.245 36.9675 208.607 39.2803 208.219 41.1257C207.719 43.5007 212.969 49.5007 216.719 50.5007C220.469 51.5007 221.969 50.3757 222.969 49.6257C223.969 48.8757 227.094 45.7507 227.219 44.3757C227.344 43.0007 229.719 43.0007 230.344 44.5007C230.969 46.0007 233.094 49.7507 235.094 50.2507C237.094 50.7507 241.844 51.0007 242.969 50.3757C244.094 49.7507 246.719 49.2507 248.719 46.6257C250.719 44.0007 254.469 38.3757 254.844 35.5007C254.844 35.5007 256.344 34.3757 256.969 35.6257C257.594 36.8757 261.594 39.5007 264.094 39.0007C264.094 39.0007 263.969 41.7507 260.219 43.5007C256.469 45.2507 254.344 43.8757 253.969 47.1257C253.594 50.3757 255.344 50.3757 256.219 50.7507C257.094 51.1257 265.094 50.1257 265.094 50.1257C265.094 50.1257 269.719 49.5007 271.594 42.5007C271.594 42.5007 277.344 30.3757 279.844 37.7507C282.344 45.1257 282.844 47.8757 286.719 49.7507C290.594 51.6257 305.094 50.7507 305.094 50.7507C305.094 50.7507 312.219 58.8757 318.969 45.6257L322.844 44.8757C322.844 44.8757 329.219 57.0007 331.719 44.5007C334.219 32.0007 331.969 33.0007 340.969 30.3757C349.969 27.7507 338.094 25.7507 335.844 28.5007C335.844 28.5007 329.594 30.6257 330.219 34.2507C330.844 37.8757 326.469 40.2507 325.969 34.5007C325.469 28.7507 325.844 27.5007 325.844 27.5007C325.844 27.5007 325.469 24.5007 321.344 26.7507C317.219 29.0007 319.594 27.8757 319.594 27.8757C319.594 27.8757 318.969 35.1257 318.719 36.5007C318.469 37.8757 313.719 46.1257 308.594 44.5007C308.594 44.5007 308.594 34.7507 309.969 29.0007C309.969 29.0007 311.469 26.0007 307.969 26.0007C304.469 26.0007 304.219 27.3757 302.969 28.8757C301.719 30.3757 296.469 35.1257 301.719 37.6257C301.719 37.6257 302.219 39.2507 301.719 40.7507C301.219 42.2507 299.094 44.6257 294.844 44.6257C290.594 44.6257 284.969 40.8757 284.844 34.0007C284.844 34.0007 283.469 25.8757 281.844 25.2507C280.219 24.6257 276.719 25.3757 276.719 25.3757C276.719 25.3757 275.844 30.0007 275.219 30.8757C274.594 31.7507 270.969 34.8757 266.844 33.6257C262.719 32.3757 259.344 28.1257 258.094 26.7507C256.844 25.3757 258.219 24.2507 259.094 24.0007C259.969 23.7507 260.469 21.2507 257.594 21.3757C254.719 21.5007 252.844 21.3757 252.344 24.7507C251.844 28.1257 252.469 28.7507 252.469 28.7507C252.469 28.7507 247.969 36.6257 243.094 40.3757C238.219 44.1257 235.094 39.0007 233.594 35.1257L233.344 27.157C233.344 27.157 227.989 27.0115 227.656 30.3445C227.323 33.6775 225.322 43.0115 219.656 43.3445C213.99 43.6775 214.177 36.5007 215.344 33.5007C216.511 30.5007 218.677 24.1677 212.344 25.0007C206.011 25.8337 202.167 27.1677 202 24.5007C201.833 21.8337 198.822 21.5212 199.156 24.6882C199.49 27.8552 200.667 31.0212 200 33.6882L199.344 36.3445C199.344 36.3445 198.177 44.1775 194.844 44.8445C191.511 45.5115 188.5 42.157 191 31.657C193.5 21.157 193.844 22.5007 193.844 22.5007C193.844 22.5007 195.5 11.1785 192.5 8.34446C189.5 5.51046 184.656 1.34446 184.656 1.34446C184.656 1.34446 176.344 -0.499288 175.344 3.00071C174.344 6.50071 174.344 12.1882 175.844 16.6882C177.344 21.1882 177 28.0007 177 28.0007C177 28.0007 178.167 33.6677 181 37.5007C183.833 41.3337 183.167 42.1677 180.5 43.5007C177.833 44.8337 169.822 50.0115 165.656 50.3445C161.49 50.6775 152.5 48.5115 155 38.8445C157.5 29.1775 160.844 30.1667 154.344 29.0007C147.844 27.8347 148.677 28.6785 145.844 26.3445C143.011 24.0105 140.844 23.99 140.844 27.657C140.844 31.324 136.666 36.1677 133 33.5007C129.334 30.8337 126.844 32.3445 126.344 32.8445C125.844 33.3445 125.166 34.657 124.5 34.657C123.834 34.657 121.989 36.3347 122.656 37.5007C123.323 38.6667 123.344 38.657 123.344 38.657C123.344 38.657 124.177 42.49 122.344 43.657C120.511 44.824 107.656 50.99 96.6564 51.657C85.6564 52.324 85.3234 51.324 81.6564 47.657C77.9894 43.99 75.6564 39.3445 75.1564 32.8445C74.6564 26.3445 80.6671 16.0007 82.0001 14.0007C83.3331 12.0007 96.3439 4.50071 103.844 4.00071C103.844 4.00171 110.5 3.66671 107 0.000711808C107 0.000711808 106.537 -0.00967882 105.781 0.000711808ZM181.219 6.25071C181.674 6.25486 182.219 6.37571 182.844 6.62571C187.844 8.62571 187.219 10.2507 187.969 13.3757L186.344 31.0007C186.344 31.0007 184.844 37.6257 182.469 30.6257C180.094 23.6257 181.594 20.8757 180.094 16.0007C178.781 11.7351 178.033 6.22166 181.219 6.25071ZM305.688 30.782C306.149 30.7898 306.688 30.9382 307.031 31.0632C307.718 31.3132 307.969 32.0002 306.594 34.6882C305.219 37.3762 304.719 36.1257 304.719 36.1257V31.3757C304.844 30.9067 305.227 30.7742 305.688 30.782ZM132.781 40.8445C134.148 40.846 134.74 43.5901 134.688 46.1257C134.604 50.1827 132.219 52.032 132.219 52.032C125.711 55.328 129.438 44.4382 129.438 44.4382C130.864 41.8395 131.961 40.8436 132.781 40.8445ZM0.68764 2.90696C0.414218 2.94866 0.19814 3.18821 0.15639 3.68821C-0.0106101 5.68821 0.00013985 9.00071 0.00013985 9.00071C1.33314 34.5007 -0.16686 37.1775 12.0001 47.8445C24.1671 58.5115 37.3439 47.0007 37.3439 47.0007C44.1769 55.5007 55.6564 52.5007 55.6564 52.5007C64.6564 47.1667 53.5001 47.8445 53.5001 47.8445C45.5001 49.8445 43.5001 43.8445 43.5001 43.8445C46.3331 39.8445 51.1779 29.5105 46.3439 26.8445C41.5099 24.1785 35.6564 25.5007 35.6564 25.5007C29.1564 31.8347 35.0001 41.6882 35.0001 41.6882C33.3331 43.5212 30.1671 45.6667 25.0001 45.5007C19.8331 45.3347 12.5001 41.3552 9.50014 37.6882C6.50014 34.0212 5.50014 16.5007 5.50014 14.5007C5.50014 12.5007 3.00014 6.67746 3.00014 5.34446C3.00014 4.34471 1.50791 2.78185 0.68764 2.90696ZM39.3751 29.2507C41.0891 29.2857 41.8391 29.3587 41.3751 31.7507C40.9111 34.1427 40.0134 37.264 39.4064 36.907C38.7994 36.55 37.2766 33.2592 37.8126 30.9382C37.8126 30.9382 37.6611 29.2157 39.3751 29.2507Z" fill="white"/>
</g>
<defs>
<clipPath id="clip0_1739:796">
<rect width="345" height="58" fill="white"/>
</clipPath>
</defs>
</svg>
