<svg width="66" height="66" viewBox="0 0 66 66" fill="none" xmlns="http://www.w3.org/2000/svg">

<path d="M61.679 52.0872H53.4546C52.1896 52.0902 50.9939 51.5084 50.2159 50.5118L42.1973 40.2909C41.8373 39.8315 41.2259 39.6499 40.6732 39.8395C40.1211 40.0286 39.7491 40.5462 39.7471 41.1296V45.2386C39.7471 49.0225 36.0631 52.0872 31.5227 52.0872C29.7477 52.1033 28.0053 51.6102 26.5024 50.6662C14.988 43.3039 7.17471 34.0075 0.389973 19.5919C-0.207884 18.3199 -0.113511 16.8307 0.639958 15.6439C1.39343 14.4572 2.70158 13.7379 4.10813 13.7364H12.3325C13.978 13.7324 15.4674 14.709 16.119 16.2187L17.0441 18.3761C18.4421 21.6168 20.319 24.6299 22.6131 27.3133C22.6879 27.3936 22.7943 27.4377 22.9042 27.4332C23.0051 27.4428 23.106 27.4091 23.1808 27.3404C23.2561 27.2722 23.2988 27.1749 23.2983 27.0736V21.7146C21.4168 21.043 20.2914 19.1174 20.6292 17.1502C20.9671 15.183 22.6713 13.7429 24.6692 13.7364H35.6349C37.9058 13.7364 39.7471 15.5762 39.7471 17.8454V27.4332C39.7481 28.0447 40.1547 28.5814 40.7435 28.7484C41.3323 28.9154 41.9603 28.6721 42.2831 28.152L49.9418 15.7051C50.6842 14.4767 52.0185 13.7289 53.4546 13.7364H61.679C63.1985 13.7369 64.5935 14.575 65.3073 15.9153C66.0211 17.2555 65.9368 18.8802 65.0885 20.1396L56.4529 32.107C56.1041 32.587 56.1041 33.2366 56.4529 33.7166L65.0202 45.5812C65.9197 46.8331 66.0427 48.4828 65.3385 49.8542C64.6342 51.2255 63.2211 52.0872 61.679 52.0872ZM41.118 37.0206C42.383 37.0181 43.5782 37.5994 44.3563 38.596L52.3749 48.8169C52.6339 49.1504 53.032 49.3466 53.4546 49.3476H61.679C62.1951 49.3496 62.6684 49.0612 62.9034 48.6022C63.1388 48.1428 63.0956 47.591 62.7924 47.1732L54.2257 35.3086C53.1876 33.8726 53.1876 31.934 54.2257 30.4979L62.8441 18.5647C62.9797 18.349 63.0509 18.0997 63.0494 17.8454C63.0494 17.089 62.436 16.4756 61.679 16.4756H53.4546C52.9792 16.4761 52.5385 16.7223 52.2895 17.1261L44.6303 29.573C43.6716 31.147 41.7811 31.8908 40.0056 31.3923C38.2301 30.8942 37.0043 29.2756 37.0058 27.4332V17.8454C37.0058 17.089 36.3919 16.4756 35.6349 16.4756H24.6692C23.9117 16.4756 23.2983 17.089 23.2983 17.8454C23.2983 18.6018 23.9117 19.2152 24.6692 19.2152H26.0396V27.0736C26.024 28.3732 25.2073 29.5284 23.986 29.9773C22.7652 30.4257 21.3938 30.0741 20.5394 29.094C18.0702 26.2043 16.0482 22.9611 14.5428 19.472L13.6 17.3147C13.3857 16.8051 12.8857 16.474 12.3325 16.4756H4.10813C3.64028 16.4781 3.20607 16.7188 2.95609 17.1141C2.7061 17.5093 2.67548 18.0044 2.87426 18.4277C9.5054 32.5178 16.7871 41.1983 27.9928 48.372C29.0544 49.0215 30.2778 49.3601 31.5227 49.3476C34.5381 49.3476 37.0058 47.4987 37.0058 45.2386V41.1296C37.0058 38.8604 38.8465 37.0206 41.118 37.0206Z"/>

<defs>
<clipPath id="clip0_1938_512">
<rect width="65.7922" height="65.7409"/>
</clipPath>
</defs>
</svg>
